<svg xmlns="http://www.w3.org/2000/svg" xmlns:xlink="http://www.w3.org/1999/xlink" width="400" zoomAndPan="magnify" viewBox="0 0 300 374.999991" height="500" preserveAspectRatio="xMidYMid meet" version="1.0"><defs><g/><clipPath id="ad27496bdc"><path d="M 0 0 L 300 0 L 300 270 L 0 270 Z M 0 0 " clip-rule="nonzero"/></clipPath></defs><path fill="#ffffff" d="M 110.507812 24.421875 C 93.546875 31.148438 75.394531 37.878906 56.09375 44.605469 C 41.800781 82.011719 25.277344 117.742188 1.679688 148.164062 C 14.308594 167.203125 30.019531 178.542969 47.316406 185.90625 C 65.996094 165.898438 72.507812 136.265625 73.644531 92.875 L 69.257812 259.617188 L 86.808594 268.394531 L 220.210938 268.394531 L 243.898438 262.257812 L 234.246094 96.382812 L 239.515625 174.488281 L 250.046875 187.65625 C 269.0625 177.417969 290.441406 170.019531 298.320312 146.40625 L 247.417969 41.96875 L 200.019531 26.171875 L 183.34375 1.601562 L 130.691406 1.601562 L 110.507812 24.417969 Z M 110.507812 24.421875 " fill-opacity="1" fill-rule="evenodd"/><g clip-path="url(#ad27496bdc)"><path stroke-linecap="butt" transform="matrix(1.068926, 0, 0, 1.068926, 0.0777903, 0)" fill="none" stroke-linejoin="miter" d="M 103.309341 22.847118 C 87.442068 29.139943 70.460213 35.436422 52.403973 41.729246 C 39.032634 76.723489 23.574651 110.150007 1.498605 138.610237 C 13.313181 156.421635 28.011056 167.030269 44.192604 173.918756 C 61.667799 155.201075 67.759634 127.479028 68.823055 86.886291 L 64.719198 242.87671 L 81.138281 251.088078 L 205.938655 251.088078 L 228.098752 245.347064 L 219.068805 90.167915 L 223.99855 163.237034 L 233.85073 175.555914 C 251.640201 165.977811 271.640566 159.056435 279.011429 136.965771 L 231.391339 39.262547 L 187.049219 24.484276 L 171.448715 1.498292 L 122.191468 1.498292 L 103.309341 22.843464 Z M 103.309341 22.847118 " stroke="#000000" stroke-width="3" stroke-opacity="1" stroke-miterlimit="4"/></g><path stroke-linecap="butt" transform="matrix(1.068926, 0, 0, 1.068926, 0.0777903, 0)" fill-opacity="1" fill="#797979" fill-rule="evenodd" stroke-linejoin="miter" d="M 117.269032 17.018399 C 129.770631 41.005681 139.589922 45.950043 145.60136 56.507517 C 152.519081 45.975623 161.910811 39.408721 177.869443 29.289772 C 182.3497 26.446673 159.908216 10.447843 163.241001 6.424382 " stroke="#000000" stroke-width="3" stroke-opacity="1" stroke-miterlimit="4"/><path stroke-linecap="butt" transform="matrix(1.068926, 0, 0, 1.068926, 0.0777903, 0)" fill-opacity="1" fill="#40317e" fill-rule="evenodd" stroke-linejoin="miter" d="M 122.198777 1.509255 L 103.320304 22.850773 C 102.830618 23.048109 102.311698 23.249099 101.818358 23.446435 L 108.231776 48.288839 L 134.510348 42.540516 L 118.909844 17.10245 L 170.630137 16.287525 L 159.948414 41.725592 L 179.660084 44.195945 L 187.791056 24.725464 L 187.038256 24.476967 L 171.448715 1.509255 Z M 122.198777 1.509255 " stroke="#000000" stroke-width="3" stroke-opacity="1" stroke-miterlimit="4"/><path fill="#b5e7ff" d="M 191.203125 122.761719 C 191.410156 122.882812 191.742188 122.875 191.929688 122.773438 C 203.859375 116.253906 203.863281 98.378906 191.949219 91.953125 C 191.726562 91.832031 191.402344 91.839844 191.183594 91.960938 C 179.5625 98.492188 179.53125 116.164062 191.203125 122.761719 Z M 191.203125 122.761719 " fill-opacity="1" fill-rule="evenodd"/><path fill="#008ce7" d="M 191.203125 123.085938 C 191.386719 123.238281 191.761719 123.226562 191.929688 123.09375 C 200.71875 116.335938 200.769531 112.121094 200.382812 112.121094 L 182.984375 112.132812 C 182.71875 112.132812 183.140625 116.410156 191.203125 123.085938 Z M 191.203125 123.085938 " fill-opacity="1" fill-rule="evenodd"/><path fill="#ffde52" d="M 184.363281 115.46875 C 185.117188 115.269531 186.027344 115.214844 186.769531 115.625 C 187.429688 115.976562 187.8125 115.976562 188.523438 115.984375 C 189.265625 115.996094 189.851562 116.554688 190.65625 116.578125 C 192.136719 116.617188 192.757812 117.371094 191.609375 117.375 C 191.0625 117.375 189.898438 117 189.335938 117.082031 C 188.160156 117.203125 187.410156 117.472656 186.304688 118.738281 L 187.585938 119.636719 C 188.691406 119.175781 188.878906 118.652344 189.488281 118.632812 C 190.183594 118.609375 190.417969 118.167969 191.214844 118.167969 C 192.125 118.339844 193.359375 118.054688 194.078125 117.886719 C 195.359375 117.582031 194.75 116.664062 193.976562 116.328125 C 193.347656 116.054688 192.171875 116.320312 191.445312 116.046875 C 190.894531 115.828125 191.347656 115.472656 191.644531 115.394531 C 191.941406 115.339844 192.261719 115.441406 192.636719 115.503906 C 193.300781 115.5625 194.136719 115.496094 194.71875 115.402344 C 195.929688 115.210938 195.875 114.847656 196.460938 114.835938 C 196.882812 114.816406 197.207031 114.683594 197.496094 114.472656 C 197.835938 114.238281 198.191406 113.757812 198.601562 113.777344 L 199.707031 113.824219 L 198.152344 117.417969 L 193.757812 122.011719 L 191.484375 122.898438 L 186.480469 119.554688 L 183.960938 115.578125 Z M 184.363281 115.46875 " fill-opacity="1" fill-rule="evenodd"/><path fill="#109421" d="M 190.109375 111.980469 L 200.152344 111.929688 L 200.328125 111.015625 C 200.328125 111.015625 199.972656 110.960938 199.683594 110.945312 C 199.320312 110.921875 198.703125 111.332031 198.289062 111.328125 C 197.996094 111.328125 197.660156 110.789062 197.367188 110.796875 C 196.855469 110.792969 196.8125 111.265625 196.328125 111.28125 C 195.9375 111.265625 195.773438 110.960938 195.269531 110.992188 C 194.742188 111.023438 194.78125 111.324219 194.113281 111.304688 C 193.230469 111.28125 192.875 110.496094 192.171875 110.488281 C 190.992188 110.472656 190.953125 111.640625 190.109375 111.980469 Z M 190.109375 111.980469 " fill-opacity="1" fill-rule="evenodd"/><path fill="#ffde52" d="M 190.109375 112.199219 L 200.449219 112.144531 L 200.449219 111.855469 L 189.875 111.910156 Z M 190.109375 112.199219 " fill-opacity="1" fill-rule="evenodd"/><path fill="#8c4200" d="M 194.359375 115.386719 C 194.515625 116.015625 194.6875 116.230469 195.328125 116.390625 C 195.960938 116.550781 196.929688 115.914062 196.328125 115.300781 C 195.753906 114.730469 195.15625 114.585938 194.640625 114.070312 C 193.5625 112.976562 191.9375 110.292969 191.933594 108.402344 C 191.933594 106.773438 191.78125 103.4375 191.78125 100.277344 C 191.78125 100.074219 191.179688 100.851562 191.179688 101.0625 C 191.207031 103.847656 191.203125 105.957031 191.3125 108.765625 C 191.484375 110.820312 192.441406 112.207031 193.277344 113.453125 C 193.652344 114.050781 194.195312 114.695312 194.359375 115.386719 Z M 194.359375 115.386719 " fill-opacity="1" fill-rule="evenodd"/><path fill="#109421" d="M 186.589844 100.382812 C 186.457031 100.644531 186.902344 100.304688 187.003906 100.265625 C 187.582031 100.054688 187.808594 99.304688 188.804688 99.753906 C 189.59375 100.101562 190.644531 99.902344 190.09375 100.253906 C 189.414062 100.671875 188.058594 101.136719 188.03125 103.210938 C 188.144531 103.414062 188.152344 103.382812 188.246094 103.164062 C 188.453125 102.679688 189.433594 101.367188 189.921875 101.476562 C 190.117188 101.527344 190.691406 100.882812 190.707031 101.070312 C 190.757812 101.585938 189.925781 102.632812 189.933594 104.039062 C 189.9375 104.363281 190.324219 104.46875 190.511719 104.238281 C 190.699219 104.039062 190.804688 103.828125 191.132812 103.5625 C 191.707031 103.078125 191.550781 101.015625 191.617188 101.109375 C 192.027344 101.65625 192.089844 103.1875 192.699219 103.816406 C 193.207031 104.339844 193.617188 104.089844 193.503906 103.363281 C 193.285156 101.90625 192.617188 102.324219 192.296875 100.820312 C 192.230469 100.527344 192.214844 100.261719 192.59375 100.386719 C 193.054688 100.523438 193.328125 100.742188 193.671875 101.277344 C 194.015625 101.789062 194.660156 102.277344 195.035156 102.578125 C 195.683594 103.089844 195.914062 102.640625 195.601562 101.984375 C 195.257812 101.242188 194.484375 100.628906 193.777344 100.359375 C 193.246094 100.171875 193.054688 100.152344 192.582031 100.058594 C 192.453125 100.03125 192.320312 99.753906 192.550781 99.605469 C 193.046875 99.292969 193.644531 98.9375 194.25 98.921875 C 194.832031 98.90625 195.292969 99.382812 195.699219 99.503906 C 196.515625 99.722656 196.511719 99.191406 196.152344 98.796875 C 195.859375 98.464844 195.234375 97.910156 194.652344 97.980469 C 193.476562 98.128906 193.550781 98.097656 192.832031 98.589844 C 192.566406 98.746094 192.273438 98.925781 192.382812 98.730469 C 192.644531 98.242188 192.398438 98.328125 192.808594 97.832031 C 193.125 97.46875 193.355469 97.207031 193.671875 97.117188 C 193.96875 97.042969 194.363281 96.71875 194.484375 96.554688 C 194.777344 96.136719 194.523438 95.898438 194.074219 96.039062 C 193.679688 96.148438 193.46875 96.417969 193.199219 96.492188 C 192.566406 96.695312 192.058594 98.183594 191.976562 98.394531 C 191.878906 98.644531 191.765625 98.519531 191.789062 98.308594 C 191.878906 97.257812 191.964844 95.5 191.605469 94.777344 C 191.0625 93.710938 191.109375 94.207031 190.902344 94.714844 C 190.589844 95.519531 190.699219 96.265625 190.894531 97.054688 C 190.980469 97.449219 191.304688 97.898438 191.359375 98.207031 C 191.402344 98.449219 191.222656 98.128906 191.121094 97.984375 C 190.777344 97.449219 190.527344 97.085938 189.972656 96.792969 C 189.59375 96.546875 188.570312 96.515625 188.214844 96.625 C 188.0625 96.675781 188.386719 96.902344 188.523438 97.011719 C 188.894531 97.316406 189.601562 97.410156 190.078125 97.710938 C 190.484375 97.96875 190.796875 98.136719 190.929688 98.492188 C 190.988281 98.753906 191.070312 99.148438 190.902344 99.136719 C 190.457031 99.113281 189.765625 98.714844 188.347656 98.878906 C 187.621094 98.980469 186.992188 99.617188 186.589844 100.382812 Z M 186.589844 100.382812 " fill-opacity="1" fill-rule="evenodd"/><path fill="#000000" d="M 189.683594 113.71875 L 190.097656 113.71875 L 190.097656 114.425781 L 189.683594 114.425781 Z M 189.683594 113.71875 " fill-opacity="1" fill-rule="evenodd"/><path fill="#fdf9ff" d="M 187.640625 109.023438 C 189.273438 111.34375 191.890625 112.699219 191.941406 113.753906 C 190.289062 113.746094 188.496094 113.753906 186.839844 113.75 C 188.011719 112.300781 188.726562 111.324219 187.640625 109.023438 Z M 187.640625 109.023438 " fill-opacity="1" fill-rule="evenodd"/><path fill="#8c4200" d="M 186.152344 113.808594 C 188.371094 114.316406 191.019531 114.597656 192.714844 113.734375 C 192.726562 114.246094 192.164062 114.976562 191.703125 114.976562 L 187.445312 114.976562 C 187.9375 114.902344 188.21875 114.746094 189.023438 114.703125 L 186.761719 114.734375 C 186.515625 114.742188 186.070312 114.054688 186.152344 113.808594 Z M 186.152344 113.808594 " fill-opacity="1" fill-rule="evenodd"/><path fill="#c62139" d="M 191.1875 123.925781 C 191.410156 124.054688 191.769531 124.046875 191.96875 123.933594 C 204.789062 116.925781 204.796875 97.699219 191.988281 90.789062 C 191.75 90.660156 191.402344 90.667969 191.167969 90.800781 C 178.675781 97.824219 178.640625 116.832031 191.1875 123.925781 Z M 191.25 122.34375 C 191.445312 122.453125 191.757812 122.449219 191.933594 122.351562 C 202.664062 115.863281 202.796875 98.722656 191.949219 92.578125 C 191.742188 92.421875 191.4375 92.472656 191.234375 92.585938 C 180.957031 98.832031 180.382812 115.265625 191.25 122.34375 Z M 191.25 122.34375 " fill-opacity="1" fill-rule="evenodd"/><g fill="#000000" fill-opacity="1"><g transform="translate(186.234401, 108.352175)"><g><path d="M 0.203125 -1.40625 C 0.203125 -1.851562 0.316406 -2.203125 0.546875 -2.453125 C 0.785156 -2.703125 1.117188 -2.828125 1.546875 -2.828125 C 1.847656 -2.828125 2.09375 -2.773438 2.28125 -2.671875 C 2.46875 -2.566406 2.609375 -2.398438 2.703125 -2.171875 L 2.359375 -2.0625 C 2.285156 -2.21875 2.179688 -2.332031 2.046875 -2.40625 C 1.910156 -2.476562 1.738281 -2.515625 1.53125 -2.515625 C 1.21875 -2.515625 0.976562 -2.414062 0.8125 -2.21875 C 0.65625 -2.03125 0.578125 -1.757812 0.578125 -1.40625 C 0.578125 -1.050781 0.660156 -0.769531 0.828125 -0.5625 C 1.003906 -0.363281 1.25 -0.265625 1.5625 -0.265625 C 1.738281 -0.265625 1.898438 -0.289062 2.046875 -0.34375 C 2.203125 -0.40625 2.332031 -0.484375 2.4375 -0.578125 L 2.4375 -1.078125 L 1.625 -1.078125 L 1.625 -1.390625 L 2.765625 -1.390625 L 2.765625 -0.4375 C 2.617188 -0.28125 2.441406 -0.160156 2.234375 -0.078125 C 2.023438 0.00390625 1.800781 0.046875 1.5625 0.046875 C 1.28125 0.046875 1.035156 -0.0078125 0.828125 -0.125 C 0.617188 -0.25 0.460938 -0.421875 0.359375 -0.640625 C 0.253906 -0.859375 0.203125 -1.113281 0.203125 -1.40625 Z M 0.203125 -1.40625 "/></g></g></g><g fill="#000000" fill-opacity="1"><g transform="translate(188.881683, 108.364051)"><g><path d="M 1.40625 0.046875 C 1.1875 0.046875 0.992188 0.00390625 0.828125 -0.078125 C 0.660156 -0.160156 0.53125 -0.28125 0.4375 -0.4375 C 0.34375 -0.601562 0.296875 -0.796875 0.296875 -1.015625 L 0.296875 -2.78125 L 0.671875 -2.78125 L 0.671875 -1.046875 C 0.671875 -0.785156 0.734375 -0.585938 0.859375 -0.453125 C 0.984375 -0.328125 1.164062 -0.265625 1.40625 -0.265625 C 1.644531 -0.265625 1.832031 -0.332031 1.96875 -0.46875 C 2.101562 -0.601562 2.171875 -0.800781 2.171875 -1.0625 L 2.171875 -2.78125 L 2.546875 -2.78125 L 2.546875 -1.046875 C 2.546875 -0.816406 2.5 -0.617188 2.40625 -0.453125 C 2.3125 -0.296875 2.175781 -0.171875 2 -0.078125 C 1.832031 0.00390625 1.632812 0.046875 1.40625 0.046875 Z M 1.40625 0.046875 "/></g></g></g><g fill="#000000" fill-opacity="1"><g transform="translate(192.106973, 108.364051)"><g><path d="M 2.25 0 L 1.9375 -0.8125 L 0.703125 -0.8125 L 0.390625 0 L 0 0 L 1.109375 -2.78125 L 1.53125 -2.78125 L 2.625 0 Z M 1.3125 -2.5 L 1.296875 -2.4375 C 1.265625 -2.332031 1.21875 -2.195312 1.15625 -2.03125 L 0.8125 -1.109375 L 1.828125 -1.109375 L 1.484375 -2.03125 C 1.441406 -2.113281 1.40625 -2.210938 1.375 -2.328125 Z M 1.3125 -2.5 "/></g></g></g><g fill="#000000" fill-opacity="1"><g transform="translate(194.823616, 108.352175)"><g><path d="M 2.625 0 L 2.625 -1.859375 C 2.625 -2.066406 2.628906 -2.265625 2.640625 -2.453125 C 2.578125 -2.210938 2.519531 -2.023438 2.46875 -1.890625 L 1.78125 0 L 1.515625 0 L 0.8125 -1.890625 L 0.703125 -2.234375 L 0.640625 -2.453125 L 0.640625 -2.234375 L 0.65625 -1.859375 L 0.65625 0 L 0.328125 0 L 0.328125 -2.78125 L 0.8125 -2.78125 L 1.53125 -0.859375 C 1.550781 -0.773438 1.570312 -0.6875 1.59375 -0.59375 C 1.625 -0.507812 1.640625 -0.445312 1.640625 -0.40625 C 1.648438 -0.457031 1.671875 -0.535156 1.703125 -0.640625 C 1.742188 -0.753906 1.769531 -0.828125 1.78125 -0.859375 L 2.484375 -2.78125 L 2.953125 -2.78125 L 2.953125 0 Z M 2.625 0 "/></g></g></g><g fill="#000000" fill-opacity="1"><g transform="translate(186.234401, 108.352175)"><g><path d="M 0.203125 -1.40625 C 0.203125 -1.851562 0.316406 -2.203125 0.546875 -2.453125 C 0.785156 -2.703125 1.117188 -2.828125 1.546875 -2.828125 C 1.847656 -2.828125 2.09375 -2.773438 2.28125 -2.671875 C 2.46875 -2.566406 2.609375 -2.398438 2.703125 -2.171875 L 2.359375 -2.0625 C 2.285156 -2.21875 2.179688 -2.332031 2.046875 -2.40625 C 1.910156 -2.476562 1.738281 -2.515625 1.53125 -2.515625 C 1.21875 -2.515625 0.976562 -2.414062 0.8125 -2.21875 C 0.65625 -2.03125 0.578125 -1.757812 0.578125 -1.40625 C 0.578125 -1.050781 0.660156 -0.769531 0.828125 -0.5625 C 1.003906 -0.363281 1.25 -0.265625 1.5625 -0.265625 C 1.738281 -0.265625 1.898438 -0.289062 2.046875 -0.34375 C 2.203125 -0.40625 2.332031 -0.484375 2.4375 -0.578125 L 2.4375 -1.078125 L 1.625 -1.078125 L 1.625 -1.390625 L 2.765625 -1.390625 L 2.765625 -0.4375 C 2.617188 -0.28125 2.441406 -0.160156 2.234375 -0.078125 C 2.023438 0.00390625 1.800781 0.046875 1.5625 0.046875 C 1.28125 0.046875 1.035156 -0.0078125 0.828125 -0.125 C 0.617188 -0.25 0.460938 -0.421875 0.359375 -0.640625 C 0.253906 -0.859375 0.203125 -1.113281 0.203125 -1.40625 Z M 0.203125 -1.40625 "/></g></g></g><path stroke-linecap="round" transform="matrix(0.739852, 0, 0, 0.760013, 132.560474, 76.407893)" fill="none" stroke-linejoin="round" d="M 72.816109 40.185285 C 72.816109 39.589078 72.974502 39.131643 73.291288 38.802701 C 73.613355 38.478899 74.056856 38.314428 74.637631 38.314428 C 75.038894 38.314428 75.371519 38.386384 75.624949 38.520017 C 75.873098 38.658789 76.06845 38.879797 76.205724 39.177901 L 75.735824 39.321813 C 75.630228 39.111084 75.487675 38.962033 75.302882 38.864378 C 75.12337 38.771863 74.89634 38.720466 74.621791 38.720466 C 74.19941 38.720466 73.877343 38.848959 73.655593 39.105945 C 73.428562 39.36293 73.317687 39.722711 73.317687 40.185285 C 73.317687 40.64786 73.439122 41.01278 73.676712 41.280045 C 73.909022 41.54731 74.241648 41.680943 74.65875 41.680943 C 74.89634 41.680943 75.11809 41.644965 75.329281 41.573009 C 75.535192 41.501053 75.704145 41.398258 75.83086 41.274905 L 75.83086 40.617021 L 74.737947 40.617021 L 74.737947 40.200704 L 76.28492 40.200704 L 76.28492 41.459935 C 76.094849 41.660384 75.857259 41.814575 75.572151 41.922509 C 75.292323 42.030443 74.986096 42.081841 74.65875 42.081841 C 74.278606 42.081841 73.94598 42.004745 73.671432 41.855693 C 73.391604 41.701502 73.180413 41.480494 73.032579 41.197809 C 72.890025 40.909985 72.816109 40.570764 72.816109 40.185285 Z M 72.816109 40.185285 " stroke="#ffffff" stroke-width="0.255694" stroke-opacity="1" stroke-miterlimit="4"/><g fill="#000000" fill-opacity="1"><g transform="translate(188.881683, 108.364051)"><g><path d="M 1.40625 0.046875 C 1.1875 0.046875 0.992188 0.00390625 0.828125 -0.078125 C 0.660156 -0.160156 0.53125 -0.28125 0.4375 -0.4375 C 0.34375 -0.601562 0.296875 -0.796875 0.296875 -1.015625 L 0.296875 -2.78125 L 0.671875 -2.78125 L 0.671875 -1.046875 C 0.671875 -0.785156 0.734375 -0.585938 0.859375 -0.453125 C 0.984375 -0.328125 1.164062 -0.265625 1.40625 -0.265625 C 1.644531 -0.265625 1.832031 -0.332031 1.96875 -0.46875 C 2.101562 -0.601562 2.171875 -0.800781 2.171875 -1.0625 L 2.171875 -2.78125 L 2.546875 -2.78125 L 2.546875 -1.046875 C 2.546875 -0.816406 2.5 -0.617188 2.40625 -0.453125 C 2.3125 -0.296875 2.175781 -0.171875 2 -0.078125 C 1.832031 0.00390625 1.632812 0.046875 1.40625 0.046875 Z M 1.40625 0.046875 "/></g></g></g><path stroke-linecap="round" transform="matrix(0.739852, 0, 0, 0.760013, 132.560474, 76.407893)" fill="none" stroke-linejoin="round" d="M 78.021966 42.09726 C 77.726299 42.09726 77.46231 42.045863 77.24056 41.932789 C 77.013529 41.824855 76.844577 41.665524 76.717862 41.459935 C 76.596427 41.254346 76.53307 41.0025 76.53307 40.714676 L 76.53307 38.386384 L 77.029369 38.386384 L 77.029369 40.673558 C 77.029369 41.00764 77.113845 41.264626 77.288078 41.434236 C 77.45703 41.608987 77.6999 41.696362 78.021966 41.696362 C 78.349312 41.696362 78.608021 41.608987 78.787534 41.429097 C 78.972326 41.249207 79.062082 40.987081 79.062082 40.64272 L 79.062082 38.386384 L 79.558381 38.386384 L 79.558381 40.668419 C 79.558381 40.966522 79.495023 41.223508 79.368309 41.434236 C 79.241594 41.650104 79.067362 41.814575 78.835052 41.927649 C 78.608021 42.040723 78.333473 42.09726 78.021966 42.09726 Z M 78.021966 42.09726 " stroke="#ffffff" stroke-width="0.255694" stroke-opacity="1" stroke-miterlimit="4"/><g fill="#000000" fill-opacity="1"><g transform="translate(192.106973, 108.364051)"><g><path d="M 2.25 0 L 1.9375 -0.8125 L 0.703125 -0.8125 L 0.390625 0 L 0 0 L 1.109375 -2.78125 L 1.53125 -2.78125 L 2.625 0 Z M 1.3125 -2.5 L 1.296875 -2.4375 C 1.265625 -2.332031 1.21875 -2.195312 1.15625 -2.03125 L 0.8125 -1.109375 L 1.828125 -1.109375 L 1.484375 -2.03125 C 1.441406 -2.113281 1.40625 -2.210938 1.375 -2.328125 Z M 1.3125 -2.5 "/></g></g></g><path stroke-linecap="round" transform="matrix(0.739852, 0, 0, 0.760013, 132.560474, 76.407893)" fill="none" stroke-linejoin="round" d="M 83.518212 42.045863 L 83.09583 40.976802 L 81.427421 40.976802 L 81.010319 42.045863 L 80.492901 42.045863 L 81.987077 38.386384 L 82.552013 38.386384 L 84.01979 42.045863 Z M 82.261625 38.761584 L 82.240506 38.83354 C 82.198268 38.977452 82.134911 39.162481 82.050434 39.388629 L 81.580534 40.591323 L 82.947996 40.591323 L 82.478096 39.383489 C 82.430578 39.260136 82.38306 39.126503 82.335542 38.977452 Z M 82.261625 38.761584 " stroke="#ffffff" stroke-width="0.255694" stroke-opacity="1" stroke-miterlimit="4"/><g fill="#000000" fill-opacity="1"><g transform="translate(194.823616, 108.352175)"><g><path d="M 2.625 0 L 2.625 -1.859375 C 2.625 -2.066406 2.628906 -2.265625 2.640625 -2.453125 C 2.578125 -2.210938 2.519531 -2.023438 2.46875 -1.890625 L 1.78125 0 L 1.515625 0 L 0.8125 -1.890625 L 0.703125 -2.234375 L 0.640625 -2.453125 L 0.640625 -2.234375 L 0.65625 -1.859375 L 0.65625 0 L 0.328125 0 L 0.328125 -2.78125 L 0.8125 -2.78125 L 1.53125 -0.859375 C 1.550781 -0.773438 1.570312 -0.6875 1.59375 -0.59375 C 1.625 -0.507812 1.640625 -0.445312 1.640625 -0.40625 C 1.648438 -0.457031 1.671875 -0.535156 1.703125 -0.640625 C 1.742188 -0.753906 1.769531 -0.828125 1.78125 -0.859375 L 2.484375 -2.78125 L 2.953125 -2.78125 L 2.953125 0 Z M 2.625 0 "/></g></g></g><path stroke-linecap="round" transform="matrix(0.739852, 0, 0, 0.760013, 132.560474, 76.407893)" fill="none" stroke-linejoin="round" d="M 87.705073 42.030443 L 87.705073 39.589078 C 87.705073 39.321813 87.710353 39.059687 87.726192 38.807841 C 87.641715 39.121364 87.567799 39.36293 87.499162 39.537681 L 86.554082 42.030443 L 86.205617 42.030443 L 85.244698 39.537681 L 85.102144 39.095665 L 85.017668 38.807841 L 85.022947 39.100805 L 85.033507 39.589078 L 85.033507 42.030443 L 84.595286 42.030443 L 84.595286 38.370965 L 85.244698 38.370965 L 86.216176 40.909985 C 86.253135 41.01278 86.284813 41.120714 86.316492 41.238927 C 86.35345 41.352001 86.37457 41.439376 86.379849 41.490773 C 86.395689 41.423957 86.427367 41.316023 86.469605 41.17725 C 86.511844 41.033338 86.543522 40.945963 86.559362 40.909985 L 87.515001 38.370965 L 88.153854 38.370965 L 88.153854 42.030443 Z M 87.705073 42.030443 " stroke="#ffffff" stroke-width="0.255694" stroke-opacity="1" stroke-miterlimit="4"/><g fill="#bd0728" fill-opacity="1"><g transform="translate(186.234401, 108.352175)"><g><path d="M 0.203125 -1.40625 C 0.203125 -1.851562 0.316406 -2.203125 0.546875 -2.453125 C 0.785156 -2.703125 1.117188 -2.828125 1.546875 -2.828125 C 1.847656 -2.828125 2.09375 -2.773438 2.28125 -2.671875 C 2.46875 -2.566406 2.609375 -2.398438 2.703125 -2.171875 L 2.359375 -2.0625 C 2.285156 -2.21875 2.179688 -2.332031 2.046875 -2.40625 C 1.910156 -2.476562 1.738281 -2.515625 1.53125 -2.515625 C 1.21875 -2.515625 0.976562 -2.414062 0.8125 -2.21875 C 0.65625 -2.03125 0.578125 -1.757812 0.578125 -1.40625 C 0.578125 -1.050781 0.660156 -0.769531 0.828125 -0.5625 C 1.003906 -0.363281 1.25 -0.265625 1.5625 -0.265625 C 1.738281 -0.265625 1.898438 -0.289062 2.046875 -0.34375 C 2.203125 -0.40625 2.332031 -0.484375 2.4375 -0.578125 L 2.4375 -1.078125 L 1.625 -1.078125 L 1.625 -1.390625 L 2.765625 -1.390625 L 2.765625 -0.4375 C 2.617188 -0.28125 2.441406 -0.160156 2.234375 -0.078125 C 2.023438 0.00390625 1.800781 0.046875 1.5625 0.046875 C 1.28125 0.046875 1.035156 -0.0078125 0.828125 -0.125 C 0.617188 -0.25 0.460938 -0.421875 0.359375 -0.640625 C 0.253906 -0.859375 0.203125 -1.113281 0.203125 -1.40625 Z M 0.203125 -1.40625 "/></g></g></g><g fill="#bd0728" fill-opacity="1"><g transform="translate(188.881683, 108.364051)"><g><path d="M 1.40625 0.046875 C 1.1875 0.046875 0.992188 0.00390625 0.828125 -0.078125 C 0.660156 -0.160156 0.53125 -0.28125 0.4375 -0.4375 C 0.34375 -0.601562 0.296875 -0.796875 0.296875 -1.015625 L 0.296875 -2.78125 L 0.671875 -2.78125 L 0.671875 -1.046875 C 0.671875 -0.785156 0.734375 -0.585938 0.859375 -0.453125 C 0.984375 -0.328125 1.164062 -0.265625 1.40625 -0.265625 C 1.644531 -0.265625 1.832031 -0.332031 1.96875 -0.46875 C 2.101562 -0.601562 2.171875 -0.800781 2.171875 -1.0625 L 2.171875 -2.78125 L 2.546875 -2.78125 L 2.546875 -1.046875 C 2.546875 -0.816406 2.5 -0.617188 2.40625 -0.453125 C 2.3125 -0.296875 2.175781 -0.171875 2 -0.078125 C 1.832031 0.00390625 1.632812 0.046875 1.40625 0.046875 Z M 1.40625 0.046875 "/></g></g></g><g fill="#bd0728" fill-opacity="1"><g transform="translate(192.106973, 108.364051)"><g><path d="M 2.25 0 L 1.9375 -0.8125 L 0.703125 -0.8125 L 0.390625 0 L 0 0 L 1.109375 -2.78125 L 1.53125 -2.78125 L 2.625 0 Z M 1.3125 -2.5 L 1.296875 -2.4375 C 1.265625 -2.332031 1.21875 -2.195312 1.15625 -2.03125 L 0.8125 -1.109375 L 1.828125 -1.109375 L 1.484375 -2.03125 C 1.441406 -2.113281 1.40625 -2.210938 1.375 -2.328125 Z M 1.3125 -2.5 "/></g></g></g><g fill="#bd0728" fill-opacity="1"><g transform="translate(194.823616, 108.352175)"><g><path d="M 2.625 0 L 2.625 -1.859375 C 2.625 -2.066406 2.628906 -2.265625 2.640625 -2.453125 C 2.578125 -2.210938 2.519531 -2.023438 2.46875 -1.890625 L 1.78125 0 L 1.515625 0 L 0.8125 -1.890625 L 0.703125 -2.234375 L 0.640625 -2.453125 L 0.640625 -2.234375 L 0.65625 -1.859375 L 0.65625 0 L 0.328125 0 L 0.328125 -2.78125 L 0.8125 -2.78125 L 1.53125 -0.859375 C 1.550781 -0.773438 1.570312 -0.6875 1.59375 -0.59375 C 1.625 -0.507812 1.640625 -0.445312 1.640625 -0.40625 C 1.648438 -0.457031 1.671875 -0.535156 1.703125 -0.640625 C 1.742188 -0.753906 1.769531 -0.828125 1.78125 -0.859375 L 2.484375 -2.78125 L 2.953125 -2.78125 L 2.953125 0 Z M 2.625 0 "/></g></g></g><path fill="#000000" d="M 153.554688 59.488281 C 158.683594 67.804688 157.96875 70.457031 157.96875 70.457031 L 160.628906 65.859375 C 160.628906 65.859375 158.683594 61.789062 155.851562 57.542969 C 153.019531 53.296875 153.726562 59.3125 153.554688 59.488281 Z M 153.554688 59.488281 " fill-opacity="1" fill-rule="evenodd"/><g fill="#40317e" fill-opacity="1"><g transform="translate(4.292554, 330.971316)"><g><path d="M 14.8125 0.625 C 12.445312 0.625 10.25 0.140625 8.21875 -0.828125 C 6.1875 -1.804688 4.523438 -3.171875 3.234375 -4.921875 C 2.734375 -5.660156 2.484375 -6.382812 2.484375 -7.09375 C 2.484375 -8.09375 2.878906 -8.953125 3.671875 -9.671875 C 4.460938 -10.398438 5.269531 -10.765625 6.09375 -10.765625 C 7.175781 -10.765625 8.335938 -10.140625 9.578125 -8.890625 C 10.367188 -8.148438 11.175781 -7.625 12 -7.3125 C 12.832031 -7 13.769531 -6.84375 14.8125 -6.84375 C 16.007812 -6.84375 17.15625 -7.148438 18.25 -7.765625 C 19.351562 -8.390625 20.238281 -9.234375 20.90625 -10.296875 C 21.570312 -11.359375 21.90625 -12.46875 21.90625 -13.625 L 21.90625 -39.75 C 21.90625 -40.832031 22.296875 -41.734375 23.078125 -42.453125 C 23.867188 -43.179688 24.785156 -43.546875 25.828125 -43.546875 C 26.984375 -43.546875 27.910156 -43.191406 28.609375 -42.484375 C 29.316406 -41.785156 29.671875 -40.875 29.671875 -39.75 L 29.671875 -13.625 C 29.671875 -11.132812 29.007812 -8.789062 27.6875 -6.59375 C 26.363281 -4.394531 24.5625 -2.640625 22.28125 -1.328125 C 20 -0.0234375 17.507812 0.625 14.8125 0.625 Z M 14.8125 0.625 "/></g></g></g><g fill="#40317e" fill-opacity="1"><g transform="translate(38.628673, 330.971316)"><g><path d="M 30.984375 -33.90625 C 32.066406 -33.90625 32.957031 -33.550781 33.65625 -32.84375 C 34.363281 -32.144531 34.71875 -31.234375 34.71875 -30.109375 L 34.71875 -3.796875 C 34.71875 -2.710938 34.363281 -1.804688 33.65625 -1.078125 C 32.957031 -0.359375 32.066406 0 30.984375 0 C 29.910156 0 29.03125 -0.347656 28.34375 -1.046875 C 27.65625 -1.753906 27.289062 -2.648438 27.25 -3.734375 C 26.21875 -2.523438 24.816406 -1.492188 23.046875 -0.640625 C 21.285156 0.203125 19.429688 0.625 17.484375 0.625 C 14.617188 0.625 12.023438 -0.109375 9.703125 -1.578125 C 7.378906 -3.054688 5.539062 -5.101562 4.1875 -7.71875 C 2.84375 -10.332031 2.171875 -13.296875 2.171875 -16.609375 C 2.171875 -19.929688 2.832031 -22.90625 4.15625 -25.53125 C 5.488281 -28.164062 7.304688 -30.21875 9.609375 -31.6875 C 11.910156 -33.164062 14.453125 -33.90625 17.234375 -33.90625 C 19.222656 -33.90625 21.085938 -33.539062 22.828125 -32.8125 C 24.578125 -32.09375 26.050781 -31.171875 27.25 -30.046875 L 27.25 -30.109375 C 27.25 -31.191406 27.601562 -32.09375 28.3125 -32.8125 C 29.019531 -33.539062 29.910156 -33.90625 30.984375 -33.90625 Z M 18.421875 -6.21875 C 21.117188 -6.21875 23.316406 -7.203125 25.015625 -9.171875 C 26.710938 -11.140625 27.5625 -13.617188 27.5625 -16.609375 C 27.5625 -19.597656 26.710938 -22.085938 25.015625 -24.078125 C 23.316406 -26.066406 21.117188 -27.0625 18.421875 -27.0625 C 15.765625 -27.0625 13.582031 -26.066406 11.875 -24.078125 C 10.175781 -22.085938 9.328125 -19.597656 9.328125 -16.609375 C 9.328125 -13.617188 10.164062 -11.140625 11.84375 -9.171875 C 13.53125 -7.203125 15.722656 -6.21875 18.421875 -6.21875 Z M 18.421875 -6.21875 "/></g></g></g><g fill="#40317e" fill-opacity="1"><g transform="translate(77.381203, 330.971316)"><g><path d="M 21.84375 -33.90625 C 26.070312 -33.90625 28.992188 -32.648438 30.609375 -30.140625 C 32.222656 -27.628906 33.03125 -24.15625 33.03125 -19.71875 L 33.03125 -3.796875 C 33.03125 -2.710938 32.675781 -1.804688 31.96875 -1.078125 C 31.269531 -0.359375 30.382812 0 29.3125 0 C 28.226562 0 27.332031 -0.359375 26.625 -1.078125 C 25.925781 -1.804688 25.578125 -2.710938 25.578125 -3.796875 L 25.578125 -19.71875 C 25.578125 -22 25.097656 -23.789062 24.140625 -25.09375 C 23.179688 -26.40625 21.539062 -27.0625 19.21875 -27.0625 C 16.8125 -27.0625 14.925781 -26.363281 13.5625 -24.96875 C 12.195312 -23.582031 11.515625 -21.832031 11.515625 -19.71875 L 11.515625 -3.796875 C 11.515625 -2.710938 11.160156 -1.804688 10.453125 -1.078125 C 9.742188 -0.359375 8.851562 0 7.78125 0 C 6.695312 0 5.800781 -0.359375 5.09375 -1.078125 C 4.394531 -1.804688 4.046875 -2.710938 4.046875 -3.796875 L 4.046875 -29.484375 C 4.046875 -30.566406 4.394531 -31.46875 5.09375 -32.1875 C 5.800781 -32.914062 6.695312 -33.28125 7.78125 -33.28125 C 8.851562 -33.28125 9.742188 -32.914062 10.453125 -32.1875 C 11.160156 -31.46875 11.515625 -30.566406 11.515625 -29.484375 L 11.515625 -28.4375 C 12.628906 -29.925781 14.085938 -31.207031 15.890625 -32.28125 C 17.703125 -33.363281 19.6875 -33.90625 21.84375 -33.90625 Z M 21.84375 -33.90625 "/></g></g></g><g fill="#40317e" fill-opacity="1"><g transform="translate(114.454256, 330.971316)"><g/></g></g><g fill="#40317e" fill-opacity="1"><g transform="translate(131.871121, 330.971316)"><g><path d="M 18.671875 0.625 C 15.679688 0.625 13.023438 0.25 10.703125 -0.5 C 8.378906 -1.25 6.203125 -2.515625 4.171875 -4.296875 C 3.046875 -5.285156 2.484375 -6.382812 2.484375 -7.59375 C 2.484375 -8.539062 2.835938 -9.378906 3.546875 -10.109375 C 4.253906 -10.835938 5.101562 -11.203125 6.09375 -11.203125 C 6.882812 -11.203125 7.59375 -10.953125 8.21875 -10.453125 C 9.875 -9.085938 11.488281 -8.09375 13.0625 -7.46875 C 14.644531 -6.84375 16.515625 -6.53125 18.671875 -6.53125 C 20.992188 -6.53125 22.992188 -7.046875 24.671875 -8.078125 C 26.347656 -9.117188 27.1875 -10.410156 27.1875 -11.953125 C 27.1875 -13.816406 26.359375 -15.273438 24.703125 -16.328125 C 23.046875 -17.390625 20.410156 -18.191406 16.796875 -18.734375 C 7.710938 -20.054688 3.171875 -24.285156 3.171875 -31.421875 C 3.171875 -34.035156 3.851562 -36.304688 5.21875 -38.234375 C 6.59375 -40.160156 8.460938 -41.628906 10.828125 -42.640625 C 13.191406 -43.660156 15.828125 -44.171875 18.734375 -44.171875 C 21.335938 -44.171875 23.789062 -43.773438 26.09375 -42.984375 C 28.394531 -42.203125 30.316406 -41.164062 31.859375 -39.875 C 33.054688 -38.925781 33.65625 -37.828125 33.65625 -36.578125 C 33.65625 -35.628906 33.300781 -34.789062 32.59375 -34.0625 C 31.894531 -33.332031 31.066406 -32.96875 30.109375 -32.96875 C 29.492188 -32.96875 28.9375 -33.15625 28.4375 -33.53125 C 27.351562 -34.40625 25.847656 -35.203125 23.921875 -35.921875 C 21.992188 -36.648438 20.265625 -37.015625 18.734375 -37.015625 C 16.117188 -37.015625 14.09375 -36.523438 12.65625 -35.546875 C 11.226562 -34.578125 10.515625 -33.304688 10.515625 -31.734375 C 10.515625 -29.953125 11.25 -28.601562 12.71875 -27.6875 C 14.195312 -26.769531 16.507812 -26.023438 19.65625 -25.453125 C 23.226562 -24.828125 26.082031 -24.023438 28.21875 -23.046875 C 30.351562 -22.078125 31.957031 -20.75 33.03125 -19.0625 C 34.113281 -17.382812 34.65625 -15.15625 34.65625 -12.375 C 34.65625 -9.769531 33.914062 -7.476562 32.4375 -5.5 C 30.96875 -3.53125 29.007812 -2.015625 26.5625 -0.953125 C 24.113281 0.0976562 21.484375 0.625 18.671875 0.625 Z M 18.671875 0.625 "/></g></g></g><g fill="#40317e" fill-opacity="1"><g transform="translate(169.006372, 330.971316)"><g><path d="M 20.09375 -7.03125 C 20.675781 -7.03125 21.207031 -6.75 21.6875 -6.1875 C 22.164062 -5.625 22.40625 -4.890625 22.40625 -3.984375 C 22.40625 -2.859375 21.789062 -1.910156 20.5625 -1.140625 C 19.34375 -0.378906 17.960938 0 16.421875 0 C 13.847656 0 11.679688 -0.546875 9.921875 -1.640625 C 8.160156 -2.742188 7.28125 -5.078125 7.28125 -8.640625 L 7.28125 -25.828125 L 4.421875 -25.828125 C 3.421875 -25.828125 2.585938 -26.15625 1.921875 -26.8125 C 1.265625 -27.476562 0.9375 -28.3125 0.9375 -29.3125 C 0.9375 -30.257812 1.265625 -31.054688 1.921875 -31.703125 C 2.585938 -32.347656 3.421875 -32.671875 4.421875 -32.671875 L 7.28125 -32.671875 L 7.28125 -36.640625 C 7.28125 -37.722656 7.640625 -38.625 8.359375 -39.34375 C 9.085938 -40.070312 9.992188 -40.4375 11.078125 -40.4375 C 12.109375 -40.4375 12.976562 -40.070312 13.6875 -39.34375 C 14.394531 -38.625 14.75 -37.722656 14.75 -36.640625 L 14.75 -32.671875 L 19.15625 -32.671875 C 20.15625 -32.671875 20.984375 -32.335938 21.640625 -31.671875 C 22.304688 -31.003906 22.640625 -30.175781 22.640625 -29.1875 C 22.640625 -28.226562 22.304688 -27.425781 21.640625 -26.78125 C 20.984375 -26.144531 20.15625 -25.828125 19.15625 -25.828125 L 14.75 -25.828125 L 14.75 -8.953125 C 14.75 -8.085938 14.972656 -7.457031 15.421875 -7.0625 C 15.878906 -6.664062 16.503906 -6.46875 17.296875 -6.46875 C 17.628906 -6.46875 18.085938 -6.550781 18.671875 -6.71875 C 19.160156 -6.925781 19.632812 -7.03125 20.09375 -7.03125 Z M 20.09375 -7.03125 "/></g></g></g><g fill="#40317e" fill-opacity="1"><g transform="translate(194.447444, 330.971316)"><g><path d="M 36.03125 -16.609375 C 36.03125 -13.296875 35.28125 -10.320312 33.78125 -7.6875 C 32.289062 -5.050781 30.25 -3.003906 27.65625 -1.546875 C 25.0625 -0.0976562 22.207031 0.625 19.09375 0.625 C 15.945312 0.625 13.085938 -0.0976562 10.515625 -1.546875 C 7.941406 -3.003906 5.90625 -5.050781 4.40625 -7.6875 C 2.914062 -10.320312 2.171875 -13.296875 2.171875 -16.609375 C 2.171875 -19.929688 2.914062 -22.90625 4.40625 -25.53125 C 5.90625 -28.164062 7.941406 -30.21875 10.515625 -31.6875 C 13.085938 -33.164062 15.945312 -33.90625 19.09375 -33.90625 C 22.207031 -33.90625 25.0625 -33.164062 27.65625 -31.6875 C 30.25 -30.21875 32.289062 -28.164062 33.78125 -25.53125 C 35.28125 -22.90625 36.03125 -19.929688 36.03125 -16.609375 Z M 28.5625 -16.609375 C 28.5625 -18.640625 28.132812 -20.453125 27.28125 -22.046875 C 26.425781 -23.648438 25.285156 -24.882812 23.859375 -25.75 C 22.429688 -26.625 20.84375 -27.0625 19.09375 -27.0625 C 17.351562 -27.0625 15.765625 -26.625 14.328125 -25.75 C 12.898438 -24.882812 11.757812 -23.648438 10.90625 -22.046875 C 10.0625 -20.453125 9.640625 -18.640625 9.640625 -16.609375 C 9.640625 -14.578125 10.0625 -12.769531 10.90625 -11.1875 C 11.757812 -9.613281 12.898438 -8.390625 14.328125 -7.515625 C 15.765625 -6.648438 17.351562 -6.21875 19.09375 -6.21875 C 20.84375 -6.21875 22.429688 -6.648438 23.859375 -7.515625 C 25.285156 -8.390625 26.425781 -9.613281 27.28125 -11.1875 C 28.132812 -12.769531 28.5625 -14.578125 28.5625 -16.609375 Z M 28.5625 -16.609375 "/></g></g></g><g fill="#40317e" fill-opacity="1"><g transform="translate(232.640164, 330.971316)"><g><path d="M 21.34375 -33.90625 C 22.582031 -33.90625 23.628906 -33.550781 24.484375 -32.84375 C 25.335938 -32.144531 25.765625 -31.316406 25.765625 -30.359375 C 25.765625 -29.078125 25.429688 -28.113281 24.765625 -27.46875 C 24.097656 -26.820312 23.3125 -26.5 22.40625 -26.5 C 21.78125 -26.5 21.070312 -26.644531 20.28125 -26.9375 C 20.15625 -26.976562 19.875 -27.0625 19.4375 -27.1875 C 19.007812 -27.3125 18.546875 -27.375 18.046875 -27.375 C 16.960938 -27.375 15.921875 -27.039062 14.921875 -26.375 C 13.929688 -25.71875 13.113281 -24.710938 12.46875 -23.359375 C 11.832031 -22.015625 11.515625 -20.410156 11.515625 -18.546875 L 11.515625 -3.796875 C 11.515625 -2.710938 11.160156 -1.804688 10.453125 -1.078125 C 9.742188 -0.359375 8.851562 0 7.78125 0 C 6.695312 0 5.800781 -0.359375 5.09375 -1.078125 C 4.394531 -1.804688 4.046875 -2.710938 4.046875 -3.796875 L 4.046875 -29.484375 C 4.046875 -30.566406 4.394531 -31.46875 5.09375 -32.1875 C 5.800781 -32.914062 6.695312 -33.28125 7.78125 -33.28125 C 8.851562 -33.28125 9.742188 -32.914062 10.453125 -32.1875 C 11.160156 -31.46875 11.515625 -30.566406 11.515625 -29.484375 L 11.515625 -28.6875 C 12.460938 -30.382812 13.828125 -31.675781 15.609375 -32.5625 C 17.398438 -33.457031 19.3125 -33.90625 21.34375 -33.90625 Z M 21.34375 -33.90625 "/></g></g></g><g fill="#40317e" fill-opacity="1"><g transform="translate(259.636317, 330.971316)"><g><path d="M 33.90625 -17.421875 C 33.863281 -16.421875 33.46875 -15.609375 32.71875 -14.984375 C 31.976562 -14.367188 31.109375 -14.0625 30.109375 -14.0625 L 9.578125 -14.0625 C 10.078125 -11.613281 11.21875 -9.691406 13 -8.296875 C 14.78125 -6.910156 16.789062 -6.21875 19.03125 -6.21875 C 20.738281 -6.21875 22.066406 -6.375 23.015625 -6.6875 C 23.972656 -7 24.726562 -7.332031 25.28125 -7.6875 C 25.84375 -8.039062 26.226562 -8.28125 26.4375 -8.40625 C 27.1875 -8.769531 27.894531 -8.953125 28.5625 -8.953125 C 29.425781 -8.953125 30.171875 -8.640625 30.796875 -8.015625 C 31.421875 -7.398438 31.734375 -6.675781 31.734375 -5.84375 C 31.734375 -4.726562 31.148438 -3.710938 29.984375 -2.796875 C 28.828125 -1.847656 27.273438 -1.039062 25.328125 -0.375 C 23.378906 0.289062 21.40625 0.625 19.40625 0.625 C 15.925781 0.625 12.890625 -0.0976562 10.296875 -1.546875 C 7.703125 -3.003906 5.695312 -5.007812 4.28125 -7.5625 C 2.875 -10.113281 2.171875 -12.984375 2.171875 -16.171875 C 2.171875 -19.742188 2.914062 -22.875 4.40625 -25.5625 C 5.90625 -28.257812 7.878906 -30.320312 10.328125 -31.75 C 12.773438 -33.1875 15.390625 -33.90625 18.171875 -33.90625 C 20.910156 -33.90625 23.488281 -33.15625 25.90625 -31.65625 C 28.332031 -30.164062 30.269531 -28.15625 31.71875 -25.625 C 33.175781 -23.101562 33.90625 -20.367188 33.90625 -17.421875 Z M 18.171875 -27.0625 C 13.359375 -27.0625 10.515625 -24.800781 9.640625 -20.28125 L 25.9375 -20.28125 L 25.9375 -20.71875 C 25.78125 -22.457031 24.929688 -23.945312 23.390625 -25.1875 C 21.859375 -26.4375 20.117188 -27.0625 18.171875 -27.0625 Z M 18.171875 -27.0625 "/></g></g></g></svg>