<?xml version="1.0"?>
<svg xmlns:rdf="http://www.w3.org/1999/02/22-rdf-syntax-ns#" xmlns="http://www.w3.org/2000/svg" xmlns:cc="http://web.resource.org/cc/" xmlns:xlink="http://www.w3.org/1999/xlink" xmlns:dc="http://purl.org/dc/elements/1.1/" xmlns:svg="http://www.w3.org/2000/svg" id="svg2" viewBox="0 0 280.51 252.59" version="1.0">
  <path id="path2166" d="m103.31 22.847c-15.868 6.294-32.851 12.589-50.906 18.883-13.371 34.992-28.831 68.42-50.904 96.88 11.814 17.81 26.511 28.42 42.694 35.31 17.472-18.72 23.564-46.44 24.63-87.033l-4.105 155.99 16.421 8.21h124.8l22.16-5.74-9.03-155.18 4.93 73.07 9.85 12.32c17.79-9.58 37.79-16.5 45.16-38.59l-47.62-97.703-44.34-14.778-15.6-22.989h-49.26l-18.88 21.347z" fill-rule="evenodd" stroke="#000" stroke-width="3" fill="#fff"/>
  <path id="path2173" d="m117.27 17.017c12.5 23.988 22.32 28.932 28.33 39.492 6.92-10.533 16.31-17.102 32.27-27.221 4.48-2.841-17.96-18.84-14.63-22.862" fill-rule="evenodd" stroke="#000" stroke-width="3" fill="#797979"/>
  <path id="path2168" d="m122.2 1.5079l-18.88 21.344c-0.49 0.195-1.01 0.398-1.5 0.593l6.41 24.844 26.28-5.75-15.6-25.437 51.72-0.813-10.68 25.438 19.71 2.468 8.13-19.468-0.75-0.25-15.59-22.969-49.25-0.0001z" fill-rule="evenodd" stroke="#000" stroke-width="3" fill="#40317e"/>
  <g id="g2206" transform="matrix(.17688 0 0 .18170 123.94 71.481)">
    <path id="path794" fill-rule="evenodd" fill="#b5e7ff" transform="matrix(.88419 0 0 .92313 35.745 12.153)" d="m310.35 245.38c1.25 0.66 3.24 0.62 4.35 0.05 71.36-36.35 71.39-136.05 0.11-171.9-1.33-0.67-3.25-0.634-4.57 0.05-69.52 36.43-69.71 135 0.11 171.8z"/>
    <path id="path798" fill-rule="evenodd" fill="#008ce7" transform="matrix(.88419 0 0 .92313 35.745 13.813)" d="m310.35 245.38c1.11 0.86 3.34 0.78 4.35 0.05 52.58-37.7 52.89-61.21 50.56-61.21l-104.06 0.06c-1.59 0 0.92 23.86 49.15 61.1z"/>
    <path id="path799" fill-rule="evenodd" fill="#ffde52" d="m273.98 201.12c3.99-1.03 8.81-1.31 12.74 0.79 3.48 1.82 5.5 1.81 9.26 1.85 3.94 0.06 7.03 2.95 11.28 3.06 7.83 0.21 11.13 4.09 5.04 4.1-2.88 0-9.04-1.92-12.02-1.51-6.22 0.64-10.17 2.02-16.02 8.53l6.76 4.64c5.85-2.39 6.84-5.07 10.08-5.18 3.66-0.12 4.9-2.38 9.13-2.39 4.81 0.88 11.33-0.59 15.14-1.45 6.77-1.57 3.55-6.3-0.55-8.02-3.32-1.41-9.53-0.05-13.38-1.45-2.92-1.13-0.52-2.96 1.05-3.35 1.58-0.29 3.28 0.23 5.25 0.55 3.52 0.3 7.93-0.04 11.02-0.52 6.39-0.99 6.12-2.86 9.2-2.91 2.25-0.11 3.96-0.78 5.49-1.88 1.8-1.21 3.67-3.68 5.85-3.58l5.84 0.24-8.22 18.5-23.24 23.66-12.04 4.56-26.45-17.22-13.34-20.46 2.13-0.56z"/>
    <path id="path803" fill-rule="evenodd" fill="#109421" transform="matrix(1 0 0 1.1939 0 -34.015)" d="m304.38 181.89l53.12-0.21 0.93-3.94s-1.89-0.24-3.42-0.31c-1.91-0.1-5.18 1.67-7.37 1.66-1.55-0.01-3.32-2.33-4.87-2.29-2.71-0.02-2.95 2.02-5.5 2.08-2.06-0.06-2.94-1.38-5.6-1.25-2.8 0.14-2.59 1.43-6.12 1.35-4.67-0.1-6.54-3.49-10.27-3.52-6.23-0.07-6.44 4.98-10.9 6.43z"/>
    <path id="path802" fill-rule="evenodd" fill="#ffde52" transform="matrix(1 0 0 .89473 0 19.585)" d="m304.38 184.07l54.68-0.31v-1.66l-55.92 0.31 1.24 1.66z"/>
    <path id="path804" fill-rule="evenodd" fill="#8c4200" d="m326.85 200.7c0.84 3.23 1.73 4.33 5.13 5.15 3.35 0.83 8.47-2.44 5.29-5.6-3.03-2.94-6.21-3.68-8.92-6.33-5.71-5.64-14.31-19.46-14.32-29.2-0.01-8.37-0.81-25.55-0.82-41.82 0-1.05-3.18 2.96-3.17 4.03 0.14 14.35 0.12 25.2 0.7 39.67 0.91 10.58 5.96 17.71 10.39 24.14 1.98 3.08 4.85 6.4 5.72 9.96z"/>
    <path id="path805" fill-rule="evenodd" fill="#109421" d="m285.76 123.43c-0.71 1.36 1.66-0.4 2.19-0.59 3.06-1.09 4.26-4.96 9.53-2.63 4.16 1.79 9.73 0.75 6.81 2.57-3.59 2.15-10.76 4.54-10.9 15.22 0.59 1.05 0.64 0.88 1.14-0.24 1.09-2.49 6.28-9.25 8.85-8.69 1.04 0.27 4.08-3.05 4.15-2.1 0.27 2.67-4.13 8.06-4.08 15.29 0.01 1.67 2.07 2.21 3.06 1.04 0.99-1.04 1.54-2.12 3.27-3.48 3.05-2.5 2.21-13.13 2.58-12.63 2.17 2.8 2.5 10.69 5.72 13.93 2.67 2.69 4.84 1.4 4.25-2.34-1.16-7.49-4.7-5.35-6.39-13.09-0.34-1.51-0.42-2.87 1.58-2.24 2.44 0.71 3.87 1.84 5.69 4.59 1.82 2.63 5.24 5.15 7.21 6.7 3.44 2.64 4.65 0.33 3.01-3.06-1.82-3.82-5.92-6.97-9.65-8.36-2.82-0.97-3.83-1.06-6.32-1.54-0.69-0.15-1.4-1.57-0.18-2.35 2.64-1.61 5.8-3.43 8.99-3.52 3.08-0.08 5.52 2.39 7.68 3.01 4.31 1.12 4.28-1.61 2.39-3.64-1.56-1.71-4.86-4.58-7.94-4.2-6.21 0.76-5.82 0.59-9.63 3.12-1.4 0.82-2.95 1.73-2.37 0.73 1.39-2.51 0.09-2.07 2.25-4.63 1.67-1.87 2.9-3.21 4.56-3.68 1.58-0.38 3.66-2.05 4.31-2.9 1.54-2.14 0.21-3.37-2.18-2.65-2.08 0.57-3.19 1.95-4.62 2.33-3.34 1.06-6.04 8.71-6.46 9.8-0.53 1.29-1.12 0.65-1.01-0.44 0.48-5.41 0.94-14.459-0.97-18.185-2.87-5.493-2.61-2.932-3.71-0.325-1.66 4.141-1.08 8-0.04 12.06 0.46 2.03 2.16 4.33 2.46 5.92 0.22 1.25-0.72-0.39-1.27-1.14-1.81-2.76-3.13-4.63-6.06-6.13-2.01-1.27-7.42-1.44-9.3-0.86-0.82 0.25 0.9 1.41 1.63 1.99 1.97 1.57 5.71 2.05 8.22 3.6 2.15 1.33 3.8 2.18 4.51 4.01 0.3 1.36 0.74 3.38-0.16 3.33-2.35-0.13-6.01-2.17-13.51-1.33-3.84 0.51-7.17 3.79-9.29 7.73z"/>
    <rect id="rect806" fill-rule="evenodd" height="3.631" width="2.1786" y="192.11" x="302.13" stroke-width="1pt"/>
    <path id="path800" fill-rule="evenodd" fill="#fdf9ff" d="m291.31 167.92c8.64 11.96 22.49 18.93 22.76 24.37-8.75-0.04-18.23 0-26.98-0.03 6.2-7.46 9.98-12.49 4.22-24.34z"/>
    <path id="path801" fill-rule="evenodd" fill="#8c4200" d="m283.45 192.56c11.74 2.62 25.75 4.06 34.7-0.37 0.07 2.62-2.91 6.39-5.35 6.39h-22.52c2.61-0.38 4.1-1.18 8.36-1.4l-11.96 0.15c-1.32 0.05-3.67-3.5-3.23-4.77z"/>
    <path id="path797" stroke-width="1pt" fill-rule="evenodd" fill="#c62139" d="m310.07 244.65c1.19 0.66 3.08 0.62 4.14 0.05 67.81-36.09 67.85-135.07 0.1-170.65-1.26-0.668-3.09-0.632-4.34 0.047-66.07 36.173-66.25 134.03 0.1 170.55zm0.34-8.15c1.04 0.58 2.69 0.55 3.61 0.05 56.76-33.41 57.46-121.66 0.09-153.29-1.1-0.807-2.7-0.555-3.79 0.045-54.36 32.145-57.39 116.76 0.09 153.2z"/>
    <g id="GUAM" font-family="helvetica" transform="scale(1.3028)">
      <text id="text2189" y="126.25521" x="217.90672">G</text>
      <text id="text2191" y="126.31119" x="228.65938">U</text>
      <text id="text2193" y="126.30345" x="241.7719">A</text>
      <text id="text2195" y="126.28076" x="252.77193">M</text>
    </g>
    <use id="use2197" stroke-linejoin="round" xlink:href="#GUAM" height="620" width="301" stroke="white" stroke-linecap="round" y="0" x="0" stroke-width=".76759"/>
    <use id="use2199" xlink:href="#GUAM" height="620" width="301" y="0" x="0" fill="#bd0728"/>
  </g>
  <path id="path2226" fill-rule="evenodd" d="m143.58 55.653c4.8 7.779 4.13 10.262 4.13 10.262l2.49-4.303s-1.82-3.807-4.47-7.78c-2.65-3.972-1.99 1.656-2.15 1.821z"/>
  <metadata>
    <rdf:RDF>
      <cc:Work>
        <dc:format>image/svg+xml</dc:format>
        <dc:type rdf:resource="http://purl.org/dc/dcmitype/StillImage"/>
        <cc:license rdf:resource="http://creativecommons.org/licenses/publicdomain/"/>
        <dc:publisher>
          <cc:Agent rdf:about="http://openclipart.org/">
            <dc:title>Openclipart</dc:title>
          </cc:Agent>
        </dc:publisher>
        <dc:title>T-shirt</dc:title>
        <dc:date>2006-10-23T10:05:37</dc:date>
        <dc:description>T shirt with Guam badge</dc:description>
        <dc:source>http://openclipart.org/detail/853/t-shirt-by-zeimusu</dc:source>
        <dc:creator>
          <cc:Agent>
            <dc:title>zeimusu</dc:title>
          </cc:Agent>
        </dc:creator>
        <dc:subject>
          <rdf:Bag>
            <rdf:li>clip art</rdf:li>
            <rdf:li>clipart</rdf:li>
            <rdf:li>clothing</rdf:li>
            <rdf:li>guam</rdf:li>
            <rdf:li>image</rdf:li>
            <rdf:li>media</rdf:li>
            <rdf:li>png</rdf:li>
            <rdf:li>public domain</rdf:li>
            <rdf:li>shirt</rdf:li>
            <rdf:li>svg</rdf:li>
          </rdf:Bag>
        </dc:subject>
      </cc:Work>
      <cc:License rdf:about="http://creativecommons.org/licenses/publicdomain/">
        <cc:permits rdf:resource="http://creativecommons.org/ns#Reproduction"/>
        <cc:permits rdf:resource="http://creativecommons.org/ns#Distribution"/>
        <cc:permits rdf:resource="http://creativecommons.org/ns#DerivativeWorks"/>
      </cc:License>
    </rdf:RDF>
  </metadata>
</svg>
